ffmpeg started on 2025-06-04 at 21:27:41
Report written to "D:\Convert\FFMetrics\reports\psnr_report-6.txt"
Log level: 32
Command line:
ffmpeg -hide_banner -nostdin -i "G:\\\xc0\xed\xe8\xec\xe5\\\xce\xed\xe3\xee\xe8\xed\xe3\xe8\\!_36_\xce\xf1\xe5\xed\xfc_2024\\DreamCast\\\xc5\xf1\xeb\xe8 \xe1\xfb \xec\xee\xff \xe6\xe5\xed\xe0 \xf1\xf2\xe0\xeb\xe0 \xec\xeb\xe0\xe4\xf8\xe5\xea\xeb\xe0\xf1\xf1\xed\xe8\xf6\xe5\xe9\\[DC] Tsuma Shougakusei ni Naru - 09_Telegram_HEVC.mkv" -i "G:\\\xc0\xed\xe8\xec\xe5\\\xce\xed\xe3\xee\xe8\xed\xe3\xe8\\!_36_\xce\xf1\xe5\xed\xfc_2024\\DreamCast\\\xc5\xf1\xeb\xe8 \xe1\xfb \xec\xee\xff \xe6\xe5\xed\xe0 \xf1\xf2\xe0\xeb\xe0 \xec\xeb\xe0\xe4\xf8\xe5\xea\xeb\xe0\xf1\xf1\xed\xe8\xf6\xe5\xe9\\[DC] Tsuma Shougakusei ni Naru - 09_Telegram.mp4" -lavfi "[0:v]settb=AVTB,setpts=PTS-STARTPTS,format=pix_fmts=yuv420p10,fps=24000/1001,scale=1920:1080:flags=bicubic[main];[1:v]settb=AVTB,setpts=PTS-STARTPTS,format=pix_fmts=yuv420p,fps=24000/1001,scale=1920:1080:flags=bicubic[ref];[main][ref]psnr=eof_action=endall:stats_file='D\\:/Convert/FFMetrics/logs/psnr_logfile-6.txt'" -f null -
Input #0, matroska,webm, from 'G:\Аниме\Онгоинги\!_36_Осень_2024\DreamCast\Если бы моя жена стала младшеклассницей\[DC] Tsuma Shougakusei ni Naru - 09_Telegram_HEVC.mkv':
  Metadata:
    COMPATIBLE_BRANDS: isomiso2avc1mp41
    MAJOR_BRAND     : isom
    MINOR_VERSION   : 512
    ENCODER         : Lavf61.7.100
  Duration: 00:23:46.60, start: -0.021000, bitrate: 888 kb/s
  Stream #0:0: Video: hevc (Main 10), yuv420p10le(tv, bt709, progressive), 1920x1080 [SAR 1:1 DAR 16:9], 23.98 fps, 23.98 tbr, 1k tbn (default)
      Metadata:
        HANDLER_NAME    : VideoHandler
        VENDOR_ID       : [0][0][0][0]
        ENCODER         : Lavc61.19.100 libx265
        BPS             : 691191
        DURATION        : 00:23:46.508708333
        NUMBER_OF_FRAMES: 34202
        NUMBER_OF_BYTES : 123248801
        _STATISTICS_WRITING_APP: mkvpropedit v66.0.0 ('Josie') 64-bit
        _STATISTICS_WRITING_DATE_UTC: 2025-05-30 15:50:13
        _STATISTICS_TAGS: BPS DURATION NUMBER_OF_FRAMES NUMBER_OF_BYTES
  Stream #0:1: Audio: aac (LC), 48000 Hz, stereo, fltp (default)
      Metadata:
        HANDLER_NAME    : SoundHandler
        VENDOR_ID       : [0][0][0][0]
        ENCODER         : Lavc61.19.100 aac
        BPS             : 193218
        DURATION        : 00:23:46.602000000
        NUMBER_OF_FRAMES: 66873
        NUMBER_OF_BYTES : 34455672
        _STATISTICS_WRITING_APP: mkvpropedit v66.0.0 ('Josie') 64-bit
        _STATISTICS_WRITING_DATE_UTC: 2025-05-30 15:50:13
        _STATISTICS_TAGS: BPS DURATION NUMBER_OF_FRAMES NUMBER_OF_BYTES
Input #1, mov,mp4,m4a,3gp,3g2,mj2, from 'G:\Аниме\Онгоинги\!_36_Осень_2024\DreamCast\Если бы моя жена стала младшеклассницей\[DC] Tsuma Shougakusei ni Naru - 09_Telegram.mp4':
  Metadata:
    major_brand     : isom
    minor_version   : 512
    compatible_brands: isomiso2avc1mp41
    encoder         : Lavf61.1.100
  Duration: 00:23:46.57, start: 0.000000, bitrate: 3396 kb/s
  Stream #1:0[0x1](und): Video: h264 (High) (avc1 / 0x31637661), yuv420p(tv, bt709, progressive), 1920x1080 [SAR 1:1 DAR 16:9], 3248 kb/s, 23.98 fps, 23.98 tbr, 24k tbn (default)
      Metadata:
        handler_name    : VideoHandler
        vendor_id       : [0][0][0][0]
        encoder         : Lavc61.3.100 h264_qsv
  Stream #1:1[0x2](und): Audio: aac (HE-AACv2) (mp4a / 0x6134706D), 48000 Hz, stereo, fltp, 144 kb/s (default)
      Metadata:
        handler_name    : SoundHandler
        vendor_id       : [0][0][0][0]
Stream mapping:
  Stream #0:0 (hevc) -> settb:default
  Stream #1:0 (h264) -> settb:default
  psnr:default -> Stream #0:0 (wrapped_avframe)
  Stream #0:1 -> #0:1 (aac (native) -> pcm_s16le (native))
Output #0, null, to 'pipe:':
  Metadata:
    COMPATIBLE_BRANDS: isomiso2avc1mp41
    MAJOR_BRAND     : isom
    MINOR_VERSION   : 512
    encoder         : Lavf61.7.100
  Stream #0:0: Video: wrapped_avframe, yuv420p10le(tv, bt709, progressive), 1920x1080 [SAR 1:1 DAR 16:9], q=2-31, 200 kb/s, 23.98 fps, 23.98 tbn
      Metadata:
        encoder         : Lavc61.19.100 wrapped_avframe
  Stream #0:1: Audio: pcm_s16le, 48000 Hz, stereo, s16, 1536 kb/s (default)
      Metadata:
        HANDLER_NAME    : SoundHandler
        VENDOR_ID       : [0][0][0][0]
        _STATISTICS_TAGS: BPS DURATION NUMBER_OF_FRAMES NUMBER_OF_BYTES
        BPS             : 193218
        DURATION        : 00:23:46.602000000
        NUMBER_OF_FRAMES: 66873
        NUMBER_OF_BYTES : 34455672
        _STATISTICS_WRITING_APP: mkvpropedit v66.0.0 ('Josie') 64-bit
        _STATISTICS_WRITING_DATE_UTC: 2025-05-30 15:50:13
        encoder         : Lavc61.19.100 pcm_s16le
frame=  177 fps=0.0 q=-0.0 size=N/A time=00:00:07.38 bitrate=N/A speed=14.5x    frame=  406 fps=394 q=-0.0 size=N/A time=00:00:16.93 bitrate=N/A speed=16.4x    frame=  649 fps=422 q=-0.0 size=N/A time=00:00:27.06 bitrate=N/A speed=17.6x    frame=  859 fps=418 q=-0.0 size=N/A time=00:00:35.82 bitrate=N/A speed=17.4x    frame= 1083 fps=421 q=-0.0 size=N/A time=00:00:45.17 bitrate=N/A speed=17.6x    frame= 1300 fps=421 q=-0.0 size=N/A time=00:00:54.22 bitrate=N/A speed=17.6x    frame= 1557 fps=432 q=-0.0 size=N/A time=00:01:04.93 bitrate=N/A speed=  18x    frame= 1808 fps=438 q=-0.0 size=N/A time=00:01:15.40 bitrate=N/A speed=18.3x    frame= 2041 fps=440 q=-0.0 size=N/A time=00:01:25.12 bitrate=N/A speed=18.4x    frame= 2307 fps=447 q=-0.0 size=N/A time=00:01:36.22 bitrate=N/A speed=18.7x    frame= 2569 fps=453 q=-0.0 size=N/A time=00:01:47.14 bitrate=N/A speed=18.9x    frame= 2820 fps=456 q=-0.0 size=N/A time=00:01:57.61 bitrate=N/A speed=  19x    frame= 2984 fps=446 q=-0.0 size=N/A time=00:02:04.45 bitrate=N/A speed=18.6x    frame= 3106 fps=430 q=-0.0 size=N/A time=00:02:09.54 bitrate=N/A speed=17.9x    frame= 3259 fps=422 q=-0.0 size=N/A time=00:02:15.92 bitrate=N/A speed=17.6x    frame= 3504 fps=425 q=-0.0 size=N/A time=00:02:26.14 bitrate=N/A speed=17.7x    frame= 3740 fps=427 q=-0.0 size=N/A time=00:02:35.98 bitrate=N/A speed=17.8x    frame= 3931 fps=424 q=-0.0 size=N/A time=00:02:43.95 bitrate=N/A speed=17.7x    frame= 4102 fps=419 q=-0.0 size=N/A time=00:02:51.08 bitrate=N/A speed=17.5x    frame= 4311 fps=418 q=-0.0 size=N/A time=00:02:59.80 bitrate=N/A speed=17.4x    frame= 4484 fps=414 q=-0.0 size=N/A time=00:03:07.02 bitrate=N/A speed=17.3x    frame= 4635 fps=408 q=-0.0 size=N/A time=00:03:13.31 bitrate=N/A speed=  17x    frame= 4801 fps=405 q=-0.0 size=N/A time=00:03:20.24 bitrate=N/A speed=16.9x    frame= 5030 fps=407 q=-0.0 size=N/A time=00:03:29.79 bitrate=N/A speed=  17x    frame= 5317 fps=412 q=-0.0 size=N/A time=00:03:41.76 bitrate=N/A speed=17.2x    frame= 5600 fps=418 q=-0.0 size=N/A time=00:03:53.56 bitrate=N/A speed=17.4x    frame= 5870 fps=422 q=-0.0 size=N/A time=00:04:04.82 bitrate=N/A speed=17.6x    frame= 6137 fps=425 q=-0.0 size=N/A time=00:04:15.96 bitrate=N/A speed=17.7x    frame= 6374 fps=426 q=-0.0 size=N/A time=00:04:25.84 bitrate=N/A speed=17.8x    frame= 6640 fps=429 q=-0.0 size=N/A time=00:04:36.94 bitrate=N/A speed=17.9x    frame= 6897 fps=431 q=-0.0 size=N/A time=00:04:47.66 bitrate=N/A speed=  18x    frame= 7133 fps=432 q=-0.0 size=N/A time=00:04:57.50 bitrate=N/A speed=  18x    frame= 7397 fps=434 q=-0.0 size=N/A time=00:05:08.51 bitrate=N/A speed=18.1x    frame= 7674 fps=437 q=-0.0 size=N/A time=00:05:20.06 bitrate=N/A speed=18.2x    frame= 7946 fps=440 q=-0.0 size=N/A time=00:05:31.41 bitrate=N/A speed=18.4x    frame= 8221 fps=443 q=-0.0 size=N/A time=00:05:42.88 bitrate=N/A speed=18.5x    frame= 8467 fps=444 q=-0.0 size=N/A time=00:05:53.14 bitrate=N/A speed=18.5x    frame= 8736 fps=446 q=-0.0 size=N/A time=00:06:04.36 bitrate=N/A speed=18.6x    frame= 8981 fps=446 q=-0.0 size=N/A time=00:06:14.58 bitrate=N/A speed=18.6x    frame= 9262 fps=449 q=-0.0 size=N/A time=00:06:26.30 bitrate=N/A speed=18.7x    frame= 9511 fps=450 q=-0.0 size=N/A time=00:06:36.68 bitrate=N/A speed=18.8x    frame= 9785 fps=451 q=-0.0 size=N/A time=00:06:48.15 bitrate=N/A speed=18.8x    frame=10068 fps=454 q=-0.0 size=N/A time=00:06:59.91 bitrate=N/A speed=18.9x    frame=10363 fps=457 q=-0.0 size=N/A time=00:07:12.22 bitrate=N/A speed=  19x    frame=10640 fps=458 q=-0.0 size=N/A time=00:07:23.77 bitrate=N/A speed=19.1x    frame=10917 fps=460 q=-0.0 size=N/A time=00:07:35.32 bitrate=N/A speed=19.2x    frame=11186 fps=461 q=-0.0 size=N/A time=00:07:46.54 bitrate=N/A speed=19.2x    frame=11450 fps=462 q=-0.0 size=N/A time=00:07:57.56 bitrate=N/A speed=19.3x    frame=11716 fps=463 q=-0.0 size=N/A time=00:08:08.65 bitrate=N/A speed=19.3x    frame=11973 fps=464 q=-0.0 size=N/A time=00:08:19.37 bitrate=N/A speed=19.4x    frame=12227 fps=465 q=-0.0 size=N/A time=00:08:29.96 bitrate=N/A speed=19.4x    frame=12507 fps=466 q=-0.0 size=N/A time=00:08:41.64 bitrate=N/A speed=19.4x    frame=12777 fps=467 q=-0.0 size=N/A time=00:08:52.90 bitrate=N/A speed=19.5x    frame=13043 fps=468 q=-0.0 size=N/A time=00:09:04.00 bitrate=N/A speed=19.5x    frame=13321 fps=469 q=-0.0 size=N/A time=00:09:15.63 bitrate=N/A speed=19.6x    frame=13574 fps=469 q=-0.0 size=N/A time=00:09:26.14 bitrate=N/A speed=19.6x    frame=13844 fps=471 q=-0.0 size=N/A time=00:09:37.41 bitrate=N/A speed=19.6x    frame=14134 fps=472 q=-0.0 size=N/A time=00:09:49.50 bitrate=N/A speed=19.7x    frame=14393 fps=473 q=-0.0 size=N/A time=00:10:00.30 bitrate=N/A speed=19.7x    frame=14657 fps=473 q=-0.0 size=N/A time=00:10:11.31 bitrate=N/A speed=19.7x    frame=14923 fps=474 q=-0.0 size=N/A time=00:10:22.41 bitrate=N/A speed=19.8x    frame=15201 fps=475 q=-0.0 size=N/A time=00:10:34.00 bitrate=N/A speed=19.8x    frame=15443 fps=475 q=-0.0 size=N/A time=00:10:44.10 bitrate=N/A speed=19.8x    frame=15706 fps=476 q=-0.0 size=N/A time=00:10:55.07 bitrate=N/A speed=19.8x    frame=15983 fps=477 q=-0.0 size=N/A time=00:11:06.62 bitrate=N/A speed=19.9x    frame=16275 fps=478 q=-0.0 size=N/A time=00:11:18.80 bitrate=N/A speed=19.9x    frame=16558 fps=479 q=-0.0 size=N/A time=00:11:30.60 bitrate=N/A speed=  20x    frame=16827 fps=480 q=-0.0 size=N/A time=00:11:41.82 bitrate=N/A speed=  20x    frame=17087 fps=480 q=-0.0 size=N/A time=00:11:52.67 bitrate=N/A speed=  20x    frame=17363 fps=481 q=-0.0 size=N/A time=00:12:04.18 bitrate=N/A speed=  20x    frame=17605 fps=481 q=-0.0 size=N/A time=00:12:14.27 bitrate=N/A speed=  20x    frame=17883 fps=481 q=-0.0 size=N/A time=00:12:25.87 bitrate=N/A speed=20.1x    frame=18145 fps=482 q=-0.0 size=N/A time=00:12:36.79 bitrate=N/A speed=20.1x    frame=18408 fps=482 q=-0.0 size=N/A time=00:12:47.76 bitrate=N/A speed=20.1x    frame=18667 fps=482 q=-0.0 size=N/A time=00:12:58.56 bitrate=N/A speed=20.1x    frame=18939 fps=483 q=-0.0 size=N/A time=00:13:09.91 bitrate=N/A speed=20.1x    frame=19217 fps=484 q=-0.0 size=N/A time=00:13:21.50 bitrate=N/A speed=20.2x    frame=19481 fps=484 q=-0.0 size=N/A time=00:13:32.52 bitrate=N/A speed=20.2x    frame=19766 fps=485 q=-0.0 size=N/A time=00:13:44.40 bitrate=N/A speed=20.2x    frame=20048 fps=486 q=-0.0 size=N/A time=00:13:56.16 bitrate=N/A speed=20.3x    frame=20328 fps=486 q=-0.0 size=N/A time=00:14:07.84 bitrate=N/A speed=20.3x    frame=20613 fps=487 q=-0.0 size=N/A time=00:14:19.73 bitrate=N/A speed=20.3x    frame=20888 fps=488 q=-0.0 size=N/A time=00:14:31.20 bitrate=N/A speed=20.3x    frame=21165 fps=488 q=-0.0 size=N/A time=00:14:42.75 bitrate=N/A speed=20.4x    frame=21435 fps=489 q=-0.0 size=N/A time=00:14:54.05 bitrate=N/A speed=20.4x    frame=21705 fps=489 q=-0.0 size=N/A time=00:15:05.27 bitrate=N/A speed=20.4x    frame=21995 fps=490 q=-0.0 size=N/A time=00:15:17.37 bitrate=N/A speed=20.4x    frame=22274 fps=491 q=-0.0 size=N/A time=00:15:29.01 bitrate=N/A speed=20.5x    frame=22552 fps=491 q=-0.0 size=N/A time=00:15:40.60 bitrate=N/A speed=20.5x    frame=22824 fps=491 q=-0.0 size=N/A time=00:15:51.95 bitrate=N/A speed=20.5x    frame=23113 fps=492 q=-0.0 size=N/A time=00:16:04.00 bitrate=N/A speed=20.5x    frame=23400 fps=493 q=-0.0 size=N/A time=00:16:15.97 bitrate=N/A speed=20.6x    frame=23680 fps=494 q=-0.0 size=N/A time=00:16:27.65 bitrate=N/A speed=20.6x    frame=23967 fps=494 q=-0.0 size=N/A time=00:16:39.62 bitrate=N/A speed=20.6x    frame=24252 fps=495 q=-0.0 size=N/A time=00:16:51.51 bitrate=N/A speed=20.6x    frame=24530 fps=495 q=-0.0 size=N/A time=00:17:03.10 bitrate=N/A speed=20.7x    frame=24811 fps=496 q=-0.0 size=N/A time=00:17:14.82 bitrate=N/A speed=20.7x    frame=25078 fps=496 q=-0.0 size=N/A time=00:17:25.96 bitrate=N/A speed=20.7x    frame=25327 fps=496 q=-0.0 size=N/A time=00:17:36.34 bitrate=N/A speed=20.7x    frame=25593 fps=496 q=-0.0 size=N/A time=00:17:47.44 bitrate=N/A speed=20.7x    frame=25877 fps=497 q=-0.0 size=N/A time=00:17:59.28 bitrate=N/A speed=20.7x    frame=26156 fps=497 q=-0.0 size=N/A time=00:18:10.92 bitrate=N/A speed=20.7x    frame=26441 fps=498 q=-0.0 size=N/A time=00:18:22.81 bitrate=N/A speed=20.8x    frame=26716 fps=498 q=-0.0 size=N/A time=00:18:34.27 bitrate=N/A speed=20.8x    frame=27000 fps=498 q=-0.0 size=N/A time=00:18:46.12 bitrate=N/A speed=20.8x    frame=27251 fps=498 q=-0.0 size=N/A time=00:18:56.59 bitrate=N/A speed=20.8x    frame=27539 fps=499 q=-0.0 size=N/A time=00:19:08.60 bitrate=N/A speed=20.8x    frame=27825 fps=499 q=-0.0 size=N/A time=00:19:20.53 bitrate=N/A speed=20.8x    frame=28081 fps=499 q=-0.0 size=N/A time=00:19:31.21 bitrate=N/A speed=20.8x    frame=28343 fps=499 q=-0.0 size=N/A time=00:19:42.13 bitrate=N/A speed=20.8x    frame=28602 fps=500 q=-0.0 size=N/A time=00:19:52.94 bitrate=N/A speed=20.8x    frame=28893 fps=500 q=-0.0 size=N/A time=00:20:05.07 bitrate=N/A speed=20.9x    frame=29146 fps=500 q=-0.0 size=N/A time=00:20:15.63 bitrate=N/A speed=20.9x    frame=29419 fps=500 q=-0.0 size=N/A time=00:20:27.01 bitrate=N/A speed=20.9x    frame=29706 fps=501 q=-0.0 size=N/A time=00:20:38.98 bitrate=N/A speed=20.9x    frame=29984 fps=501 q=-0.0 size=N/A time=00:20:50.58 bitrate=N/A speed=20.9x    frame=30273 fps=502 q=-0.0 size=N/A time=00:21:02.63 bitrate=N/A speed=20.9x    frame=30560 fps=502 q=-0.0 size=N/A time=00:21:14.60 bitrate=N/A speed=20.9x    frame=30831 fps=502 q=-0.0 size=N/A time=00:21:25.90 bitrate=N/A speed=20.9x    frame=31129 fps=503 q=-0.0 size=N/A time=00:21:38.33 bitrate=N/A speed=  21x    frame=31416 fps=503 q=-0.0 size=N/A time=00:21:50.30 bitrate=N/A speed=  21x    frame=31686 fps=503 q=-0.0 size=N/A time=00:22:01.57 bitrate=N/A speed=  21x    frame=31963 fps=504 q=-0.0 size=N/A time=00:22:13.12 bitrate=N/A speed=  21x    frame=32231 fps=504 q=-0.0 size=N/A time=00:22:24.30 bitrate=N/A speed=  21x    frame=32481 fps=504 q=-0.0 size=N/A time=00:22:34.72 bitrate=N/A speed=  21x    frame=32756 fps=504 q=-0.0 size=N/A time=00:22:46.19 bitrate=N/A speed=  21x    frame=32990 fps=504 q=-0.0 size=N/A time=00:22:55.95 bitrate=N/A speed=  21x    frame=33226 fps=503 q=-0.0 size=N/A time=00:23:05.80 bitrate=N/A speed=  21x    frame=33381 fps=502 q=-0.0 size=N/A time=00:23:12.26 bitrate=N/A speed=20.9x    frame=33534 fps=500 q=-0.0 size=N/A time=00:23:18.64 bitrate=N/A speed=20.9x    frame=33681 fps=498 q=-0.0 size=N/A time=00:23:24.77 bitrate=N/A speed=20.8x    frame=33868 fps=497 q=-0.0 size=N/A time=00:23:32.57 bitrate=N/A speed=20.7x    frame=34078 fps=497 q=-0.0 size=N/A time=00:23:41.33 bitrate=N/A speed=20.7x    [Parsed_psnr_10 @ 00000220b579fe40] PSNR y:49.362359 u:51.116872 v:51.337657 average:49.899305 min:39.592669 max:inf
[out#0/null @ 00000220b4604100] video:14696KiB audio:267492KiB subtitle:0KiB other streams:0KiB global headers:0KiB muxing overhead: unknown
frame=34202 fps=497 q=-0.0 Lsize=N/A time=00:23:46.50 bitrate=N/A speed=20.7x    
